<svg width="113" height="151" viewBox="0 0 113 151" fill="none" xmlns="http://www.w3.org/2000/svg">
<g clip-path="url(#clip0)">
<path d="M57.1878 42.9846C44.51 42.9846 34.1577 33.3824 34.1577 21.5298C34.1577 9.67715 44.51 0 57.1878 0C69.8657 0 80.218 9.67715 80.218 21.4548C80.218 33.3074 69.8657 42.9846 57.1878 42.9846ZM57.1878 4.35097C46.8355 4.35097 38.5087 12.0027 38.5087 21.4548C38.5087 30.9069 46.9106 38.6336 57.1878 38.6336C67.4651 38.6336 75.867 30.9069 75.867 21.4548C75.942 12.0027 67.5402 4.35097 57.1878 4.35097Z" fill="white"/>
<path d="M57.1878 42.9846C44.51 42.9846 34.1577 33.3824 34.1577 21.5298C34.1577 9.67715 44.51 0 57.1878 0C69.8657 0 80.218 9.67715 80.218 21.4548C80.218 33.3074 69.8657 42.9846 57.1878 42.9846ZM57.1878 4.35097C46.8355 4.35097 38.5087 12.0027 38.5087 21.4548C38.5087 30.9069 46.9106 38.6336 57.1878 38.6336C67.4651 38.6336 75.867 30.9069 75.867 21.4548C75.942 12.0027 67.5402 4.35097 57.1878 4.35097Z" fill="url(#paint0_linear)"/>
<path d="M56.8127 150.034C25.9058 150.034 0.700195 124.828 0.700195 93.9211C0.700195 62.9392 25.9058 37.8086 56.8127 37.8086C87.7196 37.8086 112.925 63.0142 112.925 93.9211C113 124.828 87.7946 150.034 56.8127 150.034ZM56.8127 44.26C29.4316 44.26 7.15163 66.54 7.15163 93.9211C7.15163 121.302 29.4316 143.582 56.8127 143.582C84.1938 143.582 106.474 121.302 106.474 93.9211C106.474 66.54 84.1938 44.26 56.8127 44.26Z" fill="white"/>
<path d="M56.8127 150.034C25.9058 150.034 0.700195 124.828 0.700195 93.9211C0.700195 62.9392 25.9058 37.8086 56.8127 37.8086C87.7196 37.8086 112.925 63.0142 112.925 93.9211C113 124.828 87.7946 150.034 56.8127 150.034ZM56.8127 44.26C29.4316 44.26 7.15163 66.54 7.15163 93.9211C7.15163 121.302 29.4316 143.582 56.8127 143.582C84.1938 143.582 106.474 121.302 106.474 93.9211C106.474 66.54 84.1938 44.26 56.8127 44.26Z" fill="url(#paint1_linear)"/>
<path d="M59.3633 48.6108H54.8623V56.1125H59.3633V48.6108Z" fill="white"/>
<path d="M59.3633 48.6108H54.8623V56.1125H59.3633V48.6108Z" fill="url(#paint2_linear)"/>
<path d="M26.4042 60.1538L23.3271 63.23L28.6839 68.5882L31.7609 65.5121L26.4042 60.1538Z" fill="white"/>
<path d="M26.4042 60.1538L23.3271 63.23L28.6839 68.5882L31.7609 65.5121L26.4042 60.1538Z" fill="url(#paint3_linear)"/>
<path d="M19.6044 92.1206H11.3525V96.6216H19.6044V92.1206Z" fill="white"/>
<path d="M19.6044 92.1206H11.3525V96.6216H19.6044V92.1206Z" fill="url(#paint4_linear)"/>
<path d="M28.6489 118.954L23.293 124.313L26.3704 127.389L31.7264 122.03L28.6489 118.954Z" fill="white"/>
<path d="M28.6489 118.954L23.293 124.313L26.3704 127.389L31.7264 122.03L28.6489 118.954Z" fill="url(#paint5_linear)"/>
<path d="M59.3633 131.879H54.8623V139.381H59.3633V131.879Z" fill="white"/>
<path d="M59.3633 131.879H54.8623V139.381H59.3633V131.879Z" fill="url(#paint6_linear)"/>
<path d="M85.1733 118.994L82.0967 122.07L87.4542 127.428L90.5307 124.351L85.1733 118.994Z" fill="white"/>
<path d="M85.1733 118.994L82.0967 122.07L87.4542 127.428L90.5307 124.351L85.1733 118.994Z" fill="url(#paint7_linear)"/>
<path d="M102.123 92.1206H94.6211V96.6216H102.123V92.1206Z" fill="white"/>
<path d="M102.123 92.1206H94.6211V96.6216H102.123V92.1206Z" fill="url(#paint8_linear)"/>
<path d="M87.4915 60.1931L82.1333 65.5498L85.2094 68.6268L90.5677 63.2701L87.4915 60.1931Z" fill="white"/>
<path d="M87.4915 60.1931L82.1333 65.5498L85.2094 68.6268L90.5677 63.2701L87.4915 60.1931Z" fill="url(#paint9_linear)"/>
<path d="M64.614 25.3555H50.3608V43.3595H64.614V25.3555Z" fill="white"/>
<path d="M64.614 25.3555H50.3608V43.3595H64.614V25.3555Z" fill="url(#paint10_linear)"/>
<path d="M69.8654 27.231C69.8654 27.8311 69.4153 28.2812 68.8151 28.2812H46.1601C45.56 28.2812 45.1099 27.8311 45.1099 27.231V15.1533C45.1099 14.5531 45.56 14.103 46.1601 14.103H68.7401C69.3403 14.103 69.7904 14.5531 69.7904 15.1533V27.231H69.8654Z" fill="white"/>
<path d="M69.8654 27.231C69.8654 27.8311 69.4153 28.2812 68.8151 28.2812H46.1601C45.56 28.2812 45.1099 27.8311 45.1099 27.231V15.1533C45.1099 14.5531 45.56 14.103 46.1601 14.103H68.7401C69.3403 14.103 69.7904 14.5531 69.7904 15.1533V27.231H69.8654Z" fill="url(#paint11_linear)"/>
<path d="M90.87 93.7714V93.9214C90.87 103.148 86.8941 111.55 80.8177 117.627H80.6677C74.5913 123.703 66.1145 127.379 56.8874 127.379H56.8124C47.5853 127.379 39.2585 123.703 33.1821 117.627H33.2571L57.1125 93.9214V60.0889C66.8646 60.0889 74.6664 63.9147 80.7427 69.9911C80.7427 69.9911 80.9678 69.9911 80.9678 70.0661C87.0441 76.1424 90.87 84.5443 90.87 93.7714Z" fill="#C1272D"/>
</g>
<path d="M52.3868 89.7955C54.8623 86.7948 58.9132 86.3447 61.6138 89.0453L61.8389 89.2703C64.6145 92.046 64.0894 96.0218 61.0887 98.4974C54.4122 104.124 40.2341 113.951 34.0077 118.452C32.7324 119.427 31.5321 117.777 32.2823 116.726C37.7585 109.675 46.7605 96.4719 52.3868 89.7955Z" fill="white"/>
<path d="M52.3868 89.7955C54.8623 86.7948 58.9132 86.3447 61.6138 89.0453L61.8389 89.2703C64.6145 92.046 64.0894 96.0218 61.0887 98.4974C54.4122 104.124 40.2341 113.951 34.0077 118.452C32.7324 119.427 31.5321 117.777 32.2823 116.726C37.7585 109.675 46.7605 96.4719 52.3868 89.7955Z" fill="url(#paint12_linear)"/>
<defs>
<linearGradient id="paint0_linear" x1="57.1878" y1="0" x2="57.1878" y2="42.9846" gradientUnits="userSpaceOnUse">
<stop stop-color="white"/>
<stop offset="1" stop-color="white" stop-opacity="0"/>
</linearGradient>
<linearGradient id="paint1_linear" x1="56.8128" y1="37.8086" x2="56.8128" y2="150.034" gradientUnits="userSpaceOnUse">
<stop stop-color="white"/>
<stop offset="1" stop-color="white" stop-opacity="0"/>
</linearGradient>
<linearGradient id="paint2_linear" x1="57.1128" y1="48.6108" x2="57.1128" y2="56.1125" gradientUnits="userSpaceOnUse">
<stop stop-color="white"/>
<stop offset="1" stop-color="white" stop-opacity="0"/>
</linearGradient>
<linearGradient id="paint3_linear" x1="24.8657" y1="61.6919" x2="30.2224" y2="67.0501" gradientUnits="userSpaceOnUse">
<stop stop-color="white"/>
<stop offset="1" stop-color="white" stop-opacity="0"/>
</linearGradient>
<linearGradient id="paint4_linear" x1="15.4785" y1="92.1206" x2="15.4785" y2="96.6216" gradientUnits="userSpaceOnUse">
<stop stop-color="white"/>
<stop offset="1" stop-color="white" stop-opacity="0"/>
</linearGradient>
<linearGradient id="paint5_linear" x1="25.9709" y1="121.634" x2="29.0484" y2="124.71" gradientUnits="userSpaceOnUse">
<stop stop-color="white"/>
<stop offset="1" stop-color="white" stop-opacity="0"/>
</linearGradient>
<linearGradient id="paint6_linear" x1="57.1128" y1="131.879" x2="57.1128" y2="139.381" gradientUnits="userSpaceOnUse">
<stop stop-color="white"/>
<stop offset="1" stop-color="white" stop-opacity="0"/>
</linearGradient>
<linearGradient id="paint7_linear" x1="83.635" y1="120.532" x2="88.9924" y2="125.89" gradientUnits="userSpaceOnUse">
<stop stop-color="white"/>
<stop offset="1" stop-color="white" stop-opacity="0"/>
</linearGradient>
<linearGradient id="paint8_linear" x1="98.3719" y1="92.1206" x2="98.3719" y2="96.6216" gradientUnits="userSpaceOnUse">
<stop stop-color="white"/>
<stop offset="1" stop-color="white" stop-opacity="0"/>
</linearGradient>
<linearGradient id="paint9_linear" x1="84.8124" y1="62.8714" x2="87.8886" y2="65.9485" gradientUnits="userSpaceOnUse">
<stop stop-color="white"/>
<stop offset="1" stop-color="white" stop-opacity="0"/>
</linearGradient>
<linearGradient id="paint10_linear" x1="57.4874" y1="25.3555" x2="57.4874" y2="43.3595" gradientUnits="userSpaceOnUse">
<stop stop-color="white"/>
<stop offset="1" stop-color="white" stop-opacity="0"/>
</linearGradient>
<linearGradient id="paint11_linear" x1="57.4876" y1="14.103" x2="57.4876" y2="28.2812" gradientUnits="userSpaceOnUse">
<stop stop-color="white"/>
<stop offset="1" stop-color="white" stop-opacity="0"/>
</linearGradient>
<linearGradient id="paint12_linear" x1="47.8532" y1="87.2588" x2="47.8532" y2="118.749" gradientUnits="userSpaceOnUse">
<stop stop-color="white"/>
<stop offset="1" stop-color="white" stop-opacity="0"/>
</linearGradient>
<clipPath id="clip0">
<rect width="112.3" height="150.033" fill="white" transform="translate(0.700195)"/>
</clipPath>
</defs>
</svg>
